<?xml version="1.0" encoding="UTF-8" standalone="no"?>
<svg width="168px" height="168px" viewBox="0 0 168 168" version="1.1" xmlns="http://www.w3.org/2000/svg" xmlns:xlink="http://www.w3.org/1999/xlink">
    <!-- Generator: Sketch 43.2 (39069) - http://www.bohemiancoding.com/sketch -->
    <title>Make Group Copy</title>
    <desc>Created with Sketch.</desc>
    <defs>
        <rect id="path-1" x="13.2631579" y="13.2631579" width="141.473684" height="141.473684"></rect>
    </defs>
    <g id="Design-Process-page" stroke="none" stroke-width="1" fill="none" fill-rule="evenodd">
        <g id="Design-Process-layout" transform="translate(-252.000000, -951.000000)">
            <g id="Group-7" transform="translate(252.000000, 890.000000)">
                <g id="Group-3" transform="translate(0.000000, 56.000000)">
                    <g id="Make-Group-Copy" transform="translate(0.000000, 5.000000)">
                        <rect id="Rectangle-2-Copy-2" fill="#EF5BB5" x="0" y="0" width="168" height="168"></rect>
                        <g id="Rectangle-4-Copy-8">
                            <use fill="#EF5BB5" fill-rule="evenodd" xlink:href="#path-1"></use>
                            <rect stroke="#313638" stroke-width="4" x="15.2631579" y="15.2631579" width="137.473684" height="137.473684"></rect>
                        </g>
                        <g id="Icon-Make-COLOR" transform="translate(25.421053, 24.315789)">
                            <g id="Icon-Make" transform="translate(58.500000, 59.500000) rotate(90.000000) translate(-58.500000, -59.500000) translate(-1.103774, 1.101852)">
                                <g>
                                    <path d="M9.92419436,68.3148148 L107.05627,68.3148148" id="Line" stroke="#313638" stroke-width="4" stroke-linecap="square" transform="translate(58.490232, 68.314815) rotate(-90.000000) translate(-58.490232, -68.314815) "></path>
                                    <polygon id="Triangle-Copy" fill="#313638" transform="translate(58.500000, 8.814815) rotate(-90.000000) translate(-58.500000, -8.814815) " points="67.3301887 8.81481481 49.6698113 22.037037 49.6698113 -4.40740741"></polygon>
                                    <path d="M53.5330189,25.8935185 L19.3160377,67.7638889" id="Line" stroke="#313638" stroke-width="4" stroke-linecap="square" transform="translate(36.424528, 46.828704) rotate(-90.000000) translate(-36.424528, -46.828704) "></path>
                                    <polygon id="Triangle-Copy" fill="#313638" transform="translate(15.452830, 29.750000) rotate(-142.000000) translate(-15.452830, -29.750000) " points="24.2830189 29.75 6.62264151 42.9722222 6.62264151 16.5277778"></polygon>
                                    <path d="M98.7877358,68.8657407 L64.5707547,24.7916667" id="Line-Copy" stroke="#313638" stroke-width="4" stroke-linecap="square" transform="translate(81.679245, 46.828704) rotate(-90.000000) translate(-81.679245, -46.828704) "></path>
                                    <polygon id="Triangle-Copy" fill="#313638" transform="translate(103.754717, 29.750000) rotate(-36.000000) translate(-103.754717, -29.750000) " points="112.584906 29.75 94.9245283 42.9722222 94.9245283 16.5277778"></polygon>
                                </g>
                            </g>
                        </g>
                    </g>
                </g>
            </g>
        </g>
    </g>
</svg>