<?xml version="1.0" encoding="utf-8"?>
<!-- Generator: Adobe Illustrator 19.2.0, SVG Export Plug-In . SVG Version: 6.00 Build 0)  -->
<svg version="1.1" id="Layer_1" xmlns="http://www.w3.org/2000/svg" xmlns:xlink="http://www.w3.org/1999/xlink" x="0px" y="0px"
	 viewBox="0 0 32 32" style="enable-background:new 0 0 32 32;" xml:space="preserve">
<style type="text/css">
	.st0{fill:#413A70;}
</style>
<path class="st0" d="M16,0C7.2,0,0,7.2,0,16c0,7.1,4.6,13.1,10.9,15.2c0.8,0.1,1.1-0.3,1.1-0.8c0-0.4,0-1.4,0-2.8
	c-4.4,1-5.4-2.1-5.4-2.1c-0.7-1.8-1.8-2.3-1.8-2.3c-1.5-1,0.1-1,0.1-1c1.6,0.1,2.5,1.6,2.5,1.6c1.4,2.4,3.7,1.7,4.7,1.3
	c0.1-1,0.6-1.7,1-2.1c-3.6-0.4-7.3-1.8-7.3-7.9c0-1.7,0.6-3.2,1.6-4.3c-0.2-0.4-0.7-2,0.2-4.2c0,0,1.3-0.4,4.4,1.6
	c1.3-0.4,2.6-0.5,4-0.5c1.4,0,2.7,0.2,4,0.5c3.1-2.1,4.4-1.6,4.4-1.6c0.9,2.2,0.3,3.8,0.2,4.2c1,1.1,1.6,2.5,1.6,4.3
	c0,6.1-3.7,7.5-7.3,7.9c0.6,0.5,1.1,1.5,1.1,2.9c0,2,0,3.9,0,4.4c0,0.4,0.3,0.9,1.1,0.7C27.4,29.1,32,23.1,32,16C32,7.2,24.8,0,16,0
	z"/>
</svg>
