<?xml version="1.0" encoding="utf-8"?>
<!-- Generator: Adobe Illustrator 19.2.0, SVG Export Plug-In . SVG Version: 6.00 Build 0)  -->
<svg version="1.1" id="Layer_1" xmlns="http://www.w3.org/2000/svg" xmlns:xlink="http://www.w3.org/1999/xlink" x="0px" y="0px"
	 viewBox="0 0 267 44" style="enable-background:new 0 0 267 44;" xml:space="preserve">
<style type="text/css">
	.st0{fill:#E6008C;}
	.st1{enable-background:new    ;}
	.st2{fill:#FFFFFF;}
</style>
<title>Artboard 1</title>
<desc>Created with Sketch.</desc>
<g id="Page-1">
	<g id="Artboard-1">
		<g id="Group-8">
			<g id="Group-4">
				<rect id="Rectangle-53" y="15" class="st0" width="92.8" height="23.6"/>
				<g class="st1">
					<path class="st2" d="M23.8,24.5c0,2.8-0.9,5.2-2.7,7c-1.8,1.9-4.1,2.8-7,2.8c-2.9,0-5.2-0.9-6.9-2.8s-2.7-4.2-2.7-7v-4.2
						c0-2.8,0.9-5.2,2.7-7c1.8-1.9,4.1-2.8,6.9-2.8c2.9,0,5.2,0.9,7,2.8c1.8,1.9,2.7,4.2,2.7,7V24.5z M19.1,20.3
						c0-1.8-0.5-3.3-1.4-4.4c-0.9-1.2-2.1-1.7-3.7-1.7c-1.6,0-2.8,0.6-3.7,1.7c-0.9,1.2-1.3,2.6-1.3,4.5v4.2c0,1.8,0.4,3.3,1.3,4.5
						c0.9,1.2,2.1,1.7,3.7,1.7c1.6,0,2.8-0.6,3.7-1.7c0.9-1.2,1.3-2.7,1.3-4.5V20.3z"/>
					<path class="st2" d="M32,25.6V34h-4.6V10.9h9.2c2.7,0,4.8,0.7,6.3,2c1.5,1.4,2.3,3.1,2.3,5.4c0,2.2-0.8,4-2.3,5.3
						c-1.5,1.3-3.6,2-6.3,2H32z M32,22h4.6c1.3,0,2.3-0.4,2.9-1.1c0.7-0.7,1-1.6,1-2.7c0-1.1-0.3-2-1-2.8c-0.7-0.7-1.6-1.1-2.9-1.1
						H32V22z"/>
					<path class="st2" d="M62.8,23.8h-9.6v6.6h11.2V34H48.6V10.9h15.8v3.6H53.3v5.8h9.6V23.8z"/>
					<path class="st2" d="M86,34h-4.6L72,18.2l-0.1,0V34h-4.6V10.9H72l9.3,15.8l0.1,0V10.9H86V34z"/>
				</g>
				<g class="st1">
					<path class="st2" d="M99.1,34.8V11.7h6.7c2.8,0,5.2,0.9,7,2.8s2.8,4.3,2.8,7.3v3c0,3-0.9,5.4-2.8,7.3s-4.2,2.8-7,2.8H99.1z
						 M101,13.3v19.9h4.8c2.3,0,4.2-0.8,5.7-2.4s2.2-3.6,2.2-6.1v-3c0-2.4-0.7-4.4-2.2-6c-1.5-1.6-3.4-2.4-5.6-2.4H101z"/>
					<path class="st2" d="M133.5,23.6h-11.1v9.6h12.8v1.6h-14.7V11.7H135v1.6h-12.7V22h11.1V23.6z"/>
					<path class="st2" d="M152.5,29.1c0-1.3-0.5-2.3-1.4-3.1c-0.9-0.8-2.6-1.5-4.9-2.1c-2.5-0.6-4.5-1.5-5.8-2.5s-2-2.4-2-4.1
						c0-1.8,0.7-3.2,2.2-4.3c1.5-1.1,3.3-1.7,5.6-1.7c2.4,0,4.3,0.7,5.8,2s2.2,2.9,2.1,4.8l0,0.1h-1.7c0-1.5-0.5-2.8-1.6-3.8
						s-2.6-1.5-4.5-1.5c-1.9,0-3.3,0.4-4.3,1.2c-1,0.8-1.6,1.9-1.6,3.1c0,1.2,0.5,2.1,1.4,2.9c1,0.8,2.6,1.5,5,2.1
						c2.5,0.6,4.4,1.5,5.7,2.6c1.3,1.1,1.9,2.5,1.9,4.3c0,1.8-0.8,3.3-2.3,4.4c-1.5,1.1-3.4,1.6-5.8,1.6c-2.3,0-4.3-0.6-6-1.7
						c-1.7-1.2-2.6-2.9-2.5-5.1l0-0.1h1.7c0,1.8,0.7,3.1,2,4c1.3,0.9,2.9,1.3,4.8,1.3c1.8,0,3.3-0.4,4.4-1.2
						C151.9,31.5,152.5,30.5,152.5,29.1z"/>
					<path class="st2" d="M161.1,34.8h-1.9V11.7h1.9V34.8z"/>
					<path class="st2" d="M184.1,32.1c-0.5,0.8-1.5,1.5-2.8,2.1c-1.4,0.7-3.1,1-5.2,1c-2.7,0-4.9-0.9-6.6-2.8
						c-1.7-1.8-2.6-4.2-2.6-7.1V21c0-2.9,0.8-5.2,2.5-7c1.6-1.8,3.8-2.7,6.4-2.7c2.5,0,4.4,0.6,5.8,1.9c1.4,1.2,2.2,2.9,2.4,4.9
						l0,0.1h-1.8c-0.3-1.5-0.9-2.8-2-3.8s-2.5-1.4-4.5-1.4c-2.1,0-3.7,0.8-5,2.3s-1.9,3.4-1.9,5.8v4.3c0,2.4,0.7,4.4,2,5.9
						c1.3,1.5,3.1,2.3,5.3,2.3c1.5,0,2.8-0.2,3.9-0.6c1.1-0.4,1.8-0.9,2.2-1.4v-6h-6.2v-1.6h8.1V32.1z"/>
					<path class="st2" d="M206.9,34.8H205l-13.1-19.9l-0.1,0v19.9h-1.9V11.7h1.9l13.1,19.9l0.1,0V11.7h1.9V34.8z"/>
					<path class="st2" d="M226,23.9h-3.2v10.9h-1.9V11.7h1.9v10.7h3.2l9.1-10.7h2.1l0,0.1l-9.6,11.3l10.3,11.7l0,0.1h-2.3L226,23.9z
						"/>
					<path class="st2" d="M244,34.8h-1.9V11.7h1.9V34.8z"/>
					<path class="st2" d="M265.6,13.3h-8v21.5h-1.9V13.3h-8v-1.6h17.8V13.3z"/>
				</g>
			</g>
		</g>
	</g>
</g>
</svg>
