<?xml version="1.0" encoding="utf-8"?>
<!-- Generator: Adobe Illustrator 19.2.0, SVG Export Plug-In . SVG Version: 6.00 Build 0)  -->
<svg version="1.1" id="Layer_1" xmlns="http://www.w3.org/2000/svg" xmlns:xlink="http://www.w3.org/1999/xlink" x="0px" y="0px"
	 viewBox="0 0 1263.7 531.2" style="enable-background:new 0 0 1263.7 531.2;" xml:space="preserve">
<style type="text/css">
	.st0{fill:url(#SVGID_1_);}
	.st1{fill:url(#SVGID_2_);}
	.st2{fill:url(#SVGID_3_);}
	.st3{fill:url(#SVGID_4_);}
	.st4{fill:url(#SVGID_5_);}
	.st5{fill:url(#SVGID_6_);}
	.st6{fill:url(#SVGID_7_);}
	.st7{fill:url(#SVGID_8_);}
	.st8{fill:url(#SVGID_9_);}
	.st9{fill:url(#SVGID_10_);}
	.st10{fill:url(#SVGID_11_);}
	.st11{fill:url(#SVGID_12_);}
	.st12{fill:url(#SVGID_13_);}
	.st13{fill:url(#SVGID_14_);}
	.st14{fill:url(#SVGID_15_);}
	.st15{fill:url(#SVGID_16_);}
	.st16{fill:url(#SVGID_17_);}
	.st17{fill:none;stroke:#403C6F;stroke-width:4;stroke-miterlimit:10;}
	.st18{fill:none;stroke:#403C6F;stroke-width:4;stroke-miterlimit:10;stroke-dasharray:12;}
	.st19{fill:none;stroke:#403C6F;stroke-width:4;stroke-miterlimit:10;stroke-dasharray:11.8904,11.8904;}
	.st20{fill:none;stroke:#403C6F;stroke-width:3;stroke-miterlimit:10;}
</style>
<g>
	<linearGradient id="SVGID_1_" gradientUnits="userSpaceOnUse" x1="261.4409" y1="95.5195" x2="195.5882" y2="95.5195">
		<stop  offset="0" style="stop-color:#403C6F;stop-opacity:0"/>
		<stop  offset="1" style="stop-color:#403C6F"/>
	</linearGradient>
	<path class="st0" d="M261.4,66.9h-45.9c-11,0-20,9-20,20v17.2c0,11,9,20,20,20h42.8"/>
	
		<linearGradient id="SVGID_2_" gradientUnits="userSpaceOnUse" x1="859.1323" y1="3185.175" x2="778.4835" y2="3185.175" gradientTransform="matrix(4.489659e-11 1 -1 4.489659e-11 3327.8762 -371.7457)">
		<stop  offset="0" style="stop-color:#403C6F;stop-opacity:0"/>
		<stop  offset="1" style="stop-color:#403C6F"/>
	</linearGradient>
	<path class="st1" d="M176.3,487.4v-60.6c0-11-9-20-20-20h-27.2c-11,0-20,9-20,20v58.7"/>
	<linearGradient id="SVGID_3_" gradientUnits="userSpaceOnUse" x1="141.1814" y1="228.4342" x2="141.1814" y2="288.1246">
		<stop  offset="0" style="stop-color:#403C6F;stop-opacity:0"/>
		<stop  offset="1" style="stop-color:#403C6F"/>
	</linearGradient>
	<path class="st2" d="M89.8,228.4v39.7c0,11,9,20,20,20h82.8v-59.7"/>
	<linearGradient id="SVGID_4_" gradientUnits="userSpaceOnUse" x1="316.0623" y1="279.7773" x2="316.0623" y2="364.1275">
		<stop  offset="0" style="stop-color:#403C6F;stop-opacity:0"/>
		<stop  offset="1" style="stop-color:#403C6F"/>
	</linearGradient>
	<path class="st3" d="M270.1,279.8v64.4c0,11,9,20,20,20h52c11,0,20-9,20-20v-64.4"/>
	<linearGradient id="SVGID_5_" gradientUnits="userSpaceOnUse" x1="1093.0684" y1="309.7223" x2="1016.7656" y2="309.7223">
		<stop  offset="0" style="stop-color:#403C6F;stop-opacity:0"/>
		<stop  offset="1" style="stop-color:#403C6F"/>
	</linearGradient>
	<path class="st4" d="M1093.1,270.5h-56.2c-11,0-20,9-20,20l-0.1,27.7V329c0,11,9,20,20,20h56.3"/>
	<linearGradient id="SVGID_6_" gradientUnits="userSpaceOnUse" x1="793.2621" y1="290.7773" x2="793.2621" y2="358.7773">
		<stop  offset="0" style="stop-color:#403C6F;stop-opacity:0"/>
		<stop  offset="1" style="stop-color:#403C6F"/>
	</linearGradient>
	<path class="st5" d="M749.4,290.8c11,0,20,9,20,20v28c0,11,9,20,20,20h47.6v-66.7"/>
	<linearGradient id="SVGID_7_" gradientUnits="userSpaceOnUse" x1="1016.8438" y1="121.5983" x2="1094.0684" y2="121.5983">
		<stop  offset="0" style="stop-color:#403C6F;stop-opacity:0"/>
		<stop  offset="1" style="stop-color:#403C6F"/>
	</linearGradient>
	<path class="st6" d="M1016.8,85.4h57.2c11,0,20,9,20,20v32.4c0,11-9,20-20,20h-57.2"/>
	
		<linearGradient id="SVGID_8_" gradientUnits="userSpaceOnUse" x1="4326.6758" y1="1660.6349" x2="4403.9004" y2="1660.6349" gradientTransform="matrix(-1 0 0 -1 5548.9131 1731.6968)">
		<stop  offset="0" style="stop-color:#403C6F;stop-opacity:0"/>
		<stop  offset="1" style="stop-color:#403C6F"/>
	</linearGradient>
	<path class="st7" d="M1222.2,101.8H1165c-11,0-20-9-20-20V60.4c0-11,9-20,20-20h57.2"/>
	
		<linearGradient id="SVGID_9_" gradientUnits="userSpaceOnUse" x1="1275.2023" y1="-380.8746" x2="1352.4269" y2="-380.8746" gradientTransform="matrix(1 0 0 1 -276.1357 849.7798)">
		<stop  offset="0" style="stop-color:#403C6F;stop-opacity:0"/>
		<stop  offset="1" style="stop-color:#403C6F"/>
	</linearGradient>
	<path class="st8" d="M999.1,441.7h57.2c11,0,20,9,20,20v14.4c0,11-9,20-20,20h-57.2"/>
	<linearGradient id="SVGID_10_" gradientUnits="userSpaceOnUse" x1="534.0684" y1="177.4412" x2="439.0684" y2="177.4412">
		<stop  offset="0" style="stop-color:#403C6F;stop-opacity:0"/>
		<stop  offset="1" style="stop-color:#403C6F"/>
	</linearGradient>
	<path class="st9" d="M534.1,211.5h-75c-11,0-20-9-20-20v-28.2c0-11,9-20,20-20h75"/>
	
		<linearGradient id="SVGID_11_" gradientUnits="userSpaceOnUse" x1="1069.731" y1="3058.2827" x2="1008.0253" y2="3058.2827" gradientTransform="matrix(4.489659e-11 1 -1 4.489659e-11 3411.0569 -538.6165)">
		<stop  offset="0" style="stop-color:#403C6F;stop-opacity:0"/>
		<stop  offset="1" style="stop-color:#403C6F"/>
	</linearGradient>
	<path class="st10" d="M298.7,531.1v-41.7c0-11,9-20,20-20h68.2c11,0,20,9,20,20v41.7"/>
	
		<linearGradient id="SVGID_12_" gradientUnits="userSpaceOnUse" x1="4189.0923" y1="1726.5604" x2="4144.0923" y2="1726.5604" gradientTransform="matrix(-1 0 0 -1 4983.6572 1793.098)">
		<stop  offset="0" style="stop-color:#403C6F;stop-opacity:0"/>
		<stop  offset="1" style="stop-color:#403C6F"/>
	</linearGradient>
	<path class="st11" d="M794.6,37.4h25c11,0,20,9,20,20v18.2c0,11-9,20-20,20h-25"/>
	<linearGradient id="SVGID_13_" gradientUnits="userSpaceOnUse" x1="655.2141" y1="223.3332" x2="655.2141" y2="340.7271">
		<stop  offset="0" style="stop-color:#403C6F;stop-opacity:0"/>
		<stop  offset="1" style="stop-color:#403C6F"/>
	</linearGradient>
	<path class="st12" d="M694.2,223.3v97.4c0,11-9,20-20,20h-38c-11,0-20-9-20-20v-97.4"/>
	
		<linearGradient id="SVGID_14_" gradientUnits="userSpaceOnUse" x1="-84.536" y1="-607.7884" x2="-219.536" y2="-607.7884" gradientTransform="matrix(1 0 0 -1 572.2898 -543.671)">
		<stop  offset="0" style="stop-color:#403C6F;stop-opacity:0"/>
		<stop  offset="1" style="stop-color:#403C6F"/>
	</linearGradient>
	<path class="st13" d="M487.8,37h-115c-11,0-20,9-20,20v14.2c0,11,9,20,20,20h115"/>
	
		<linearGradient id="SVGID_15_" gradientUnits="userSpaceOnUse" x1="3314.5247" y1="-1006.8425" x2="3249.5247" y2="-1006.8425" gradientTransform="matrix(-1 0 0 -1 3927.4011 -543.671)">
		<stop  offset="0" style="stop-color:#403C6F;stop-opacity:0"/>
		<stop  offset="1" style="stop-color:#403C6F"/>
	</linearGradient>
	<path class="st14" d="M612.9,434.1h45c11,0,20,9,20,20v18.2c0,11-9,20-20,20h-45"/>
	
		<linearGradient id="SVGID_16_" gradientUnits="userSpaceOnUse" x1="3810.0652" y1="-591.713" x2="3765.0652" y2="-591.713" gradientTransform="matrix(-1 0 0 -1 3927.4011 -543.671)">
		<stop  offset="0" style="stop-color:#403C6F;stop-opacity:0"/>
		<stop  offset="1" style="stop-color:#403C6F"/>
	</linearGradient>
	<path class="st15" d="M117.3,18.9h25c11,0,20,9,20,20v18.2c0,11-9,20-20,20h-25"/>
	
		<linearGradient id="SVGID_17_" gradientUnits="userSpaceOnUse" x1="2412.0078" y1="-231.0622" x2="2344.3196" y2="-231.0622" gradientTransform="matrix(4.489659e-11 -1 -1 -4.489659e-11 273.2708 2833.0884)">
		<stop  offset="0" style="stop-color:#403C6F;stop-opacity:0"/>
		<stop  offset="1" style="stop-color:#403C6F"/>
	</linearGradient>
	<path class="st16" d="M465.2,421.1v47.7c0,11,9,20,20,20h38.2c11,0,20-9,20-20v-47.7"/>
	<path class="st17" d="M362.1,344.1c0,11-9,20-20,20h-52c-11,0-20-9-20-20v-108c0-11,9-20,20-20h21.5c11,0,20-9,20-20l-0.1-21.8
		c0-11-9-20-20-20"/>
	<path class="st17" d="M172.6,186.1c11,0,20,9,20,20v150c0,11-9,20-20,20h-105c-11,0-20-9-20-20v-140c0-11-9-20-20-20H0"/>
	<path class="st18" d="M694.7,161.5c0-11,9-20,20-20h62c11,0,20,9,20,20v82c0,11,9,20,20,20h118c11,0,20-9,20-20v-92
		c0-11-9-20-20-20h-71.7"/>
	<g>
		<g>
			<line class="st17" x1="215" y1="431.5" x2="221" y2="431.5"/>
			<path class="st19" d="M232.9,431.5h158.6c11,0,20-9,20-20V298.3"/>
			<line class="st17" x1="411.6" y1="292.3" x2="411.6" y2="286.3"/>
		</g>
	</g>
	<path class="st17" d="M1164.7,143.1v86.6c0,11-9,20-20,20h-68c-11,0-20-9-20-20v-52c0-11-9-20-20-20h-62c-11,0-20,9-20,20"/>
	<path class="st18" d="M53.7,45.1v36.6c0,11-9,20-20,20H0"/>
	<path class="st18" d="M1263.7,196.1h-13.6c-11,0-20,9-20,20v63.8c0,11-9,20-20,20h-50.7"/>
	<path class="st17" d="M954.8,229c0-11,9-20,20-20h22c11,0,20,9,20,20v100c0,11,9,20,20,20h62c11,0,20-9,20-20v-9c0-11,9-20,20-20
		h20.6"/>
	<path class="st17" d="M695.1,290.8h54.4c11,0,20,9,20,20v28c0,11,9,20,20,20h112c11,0,20,9,20,20"/>
	<path class="st17" d="M0,437.1h24.4c11,0,20,9,20,20v8.4c0,11,9,20,20,20h142c11,0,20,9,20,20v25.8"/>
	<line class="st17" x1="226.4" y1="0" x2="226.4" y2="26.9"/>
	<path class="st17" d="M109.1,485.5v-58.7c0-11,9-20,20-20h27.2c11,0,20,9,20,20v60.6"/>
	<path class="st17" d="M465.2,248.7v134.9c0,11-9,20-20,20h-63.2c-11,0-20-9-20-20V144.1c0-11-9-20-20-20h-188c-11,0-20,9-20,20v22
		c0,11,9,20,20,20h18.5"/>
	<path class="st17" d="M192.6,288.1h-82.8c-11,0-20-9-20-20v-171c0-11,9-20,20-20h32.6c11,0,20-9,20-20V38.9c0-11-9-20-20-20h-46"/>
	<path class="st17" d="M937.1,0v65.4c0,11,9,20,20,20h117c11,0,20,9,20,20v32.4c0,11-9,20-20,20h-68"/>
	<path class="st17" d="M1263.7,101.8H1165c-11,0-20-9-20-20V60.4c0-11,9-20,20-20h68"/>
	<path class="st17" d="M957.6,441.7h98.7c11,0,20,9,20,20v14.4c0,11-9,20-20,20h-68"/>
	<path class="st17" d="M937.1,531.2v-11.1c0-15,9-24,20-24H1101c11,0,20-9,20-20l-0.4-18.6c0-11,9-20,20-20h123.1"/>
	<path class="st17" d="M580.1,377V231.5c0-11-9-20-20-20h-66h-35c-11,0-20-9-20-20v-28.2c0-11,9-20,20-20"/>
	<path class="st17" d="M298.7,531.1v-41.7c0-11,9-20,20-20h68.2c11,0,20,9,20,20"/>
	<path class="st17" d="M298.7,0l0,47.2c0,11-9,20-20,20l-63.1-0.2c-11,0-20,9-20,20v17.2c0,11,9,20,20,20"/>
	<path class="st17" d="M1016.8,312.8v-22c0-11,9-20,20-20l23.2-0.3h79.3c11,0,20,9,20,20v89c0,11-9,20-20,20"/>
	<path class="st17" d="M729.1,377v67.1c0,11,9,20,20,20h68c11,0,20-9,20-20v-192c0-11-9-20-20-20l-73.7,0c-11,0-20-9-20-20v-22
		c0-11,9-20,20-20h158.1c11,0,20,9,20,20v189.4c0,11,9,20,20,20"/>
	<path class="st17" d="M590.1,68.7h84.1c11,0,20,9,20,20v232c0,11-9,20-20,20h-38c-11,0-20-9-20-20V163.3c0-11-9-20-20-20h-188
		c-11,0-20,9-20,20v102c0,11,9,20,20,20h64h34.5c11,0,20,9,20,20"/>
	<path class="st17" d="M748.6,0v17.4c0,11,9,20,20,20h16h35c11,0,20,9,20,20v18.2c0,11-9,20-20,20"/>
	<path class="st18" d="M748.6,531.1v-15.3c0-11,9-20,20-20h16h85c11,0,20-9,20-20v-57.2"/>
	<path class="st18" d="M1198.6,531.2v-77.5v-85c0-11-9-20-20-20h-19.2"/>
	<path class="st17" d="M695.1,95.6h175.4c11,0,20-9,20-20"/>
	<path class="st18" d="M195.6,186.1l19.2,0c11,0,20,9,20,20v62c0,11-9,20-20,20h-22.2"/>
	<path class="st17" d="M192.6,288.1"/>
	<line class="st18" x1="941.4" y1="399.5" x2="1139.4" y2="399.5"/>
	<path class="st17" d="M585.3,0v17c0,11-9,20-20,20H447.8h-75c-11,0-20,9-20,20v14.2c0,11,9,20,20,20h115"/>
	<path class="st17" d="M585.3,531.1v-18.8c0-11,9-20,20-20h52.6c11,0,20-9,20-20v-18.2c0-11-9-20-20-20h-43"/>
	<path class="st17" d="M543.4,358.2v47.6v63c0,11-9,20-20,20h-38.2c-11,0-20-9-20-20v-101"/>
	<rect x="119.6" y="323.6" class="st20" width="14.6" height="14.6"/>
	<rect x="639.2" y="378.9" class="st20" width="14.6" height="14.6"/>
	<rect x="255.2" y="483.5" class="st20" width="14.6" height="14.6"/>
	<rect x="856.5" y="197.9" class="st20" width="14.6" height="14.6"/>
	<rect x="992.5" y="22.1" class="st20" width="14.6" height="14.6"/>
	<rect x="963.5" y="323.6" class="st20" width="14.6" height="14.6"/>
	<rect x="1206.5" y="143.8" class="st20" width="14.6" height="14.6"/>
	<circle class="st20" cx="1101.7" cy="35.5" r="8.6"/>
	<circle class="st20" cx="1230.5" cy="342.7" r="8.6"/>
	<circle class="st20" cx="665.5" cy="33.7" r="8.6"/>
	<circle class="st20" cx="270.1" cy="35.5" r="8.6"/>
	<circle class="st20" cx="276.4" cy="170.4" r="8.6"/>
	<circle class="st20" cx="144.2" cy="224.5" r="8.6"/>
	<circle class="st20" cx="429.1" cy="246.5" r="8.6"/>
	<circle class="st20" cx="784.1" cy="411.5" r="8.6"/>
	<polygon class="st20" points="646.5,252.7 654.5,239.6 662.5,252.7 	"/>
	<polygon class="st20" points="229,386.2 237,373.1 245.1,386.2 	"/>
	<polygon class="st20" points="28,144.5 36,131.5 44.1,144.5 	"/>
	<polygon class="st20" points="533.2,97.1 541.2,84 549.2,97.1 	"/>
	<polygon class="st20" points="570.3,464.3 578.3,451.3 586.4,464.3 	"/>
	<polygon class="st20" points="871,40.2 879.1,27.1 887.1,40.2 	"/>
	<polygon class="st20" points="1101,205.2 1109,192.1 1117.1,205.2 	"/>
	<polygon class="st20" points="919,470.4 927,457.3 935,470.4 	"/>
	<polygon class="st20" points="71,458.2 79,445.1 87.1,458.2 	"/>
</g>
</svg>
